<?xml version="1.0" encoding="UTF-8"?>
<svg id="flag-icons-lb" xmlns="http://www.w3.org/2000/svg" xmlns:xlink="http://www.w3.org/1999/xlink" version="1.1" viewBox="0 0 640 480">
  <defs>
    <style>
      .cls-1 {
        clip-path: url(#clippath);
      }

      .cls-2 {
        fill: none;
      }

      .cls-2, .cls-3, .cls-4, .cls-5 {
        stroke-width: 0px;
      }

      .cls-6 {
        stroke: #fff;
        stroke-linecap: round;
        stroke-linejoin: round;
        stroke-width: 3px;
      }

      .cls-6, .cls-3, .cls-5 {
        fill-rule: evenodd;
      }

      .cls-6, .cls-5 {
        fill: #fff;
      }

      .cls-3 {
        fill: #ee161f;
      }

      .cls-4 {
        fill: #00a850;
      }
    </style>
    <clipPath id="clippath">
      <rect class="cls-2" x="0" width="639.9" height="480"/>
    </clipPath>
  </defs>
  <g class="cls-1">
    <g>
      <g>
        <path class="cls-3" d="M0,360h640v120H0v-120ZM0,0h640v120H0V0Z"/>
        <path class="cls-5" d="M0,120h640v240H0V120Z"/>
      </g>
      <path class="cls-4" d="M316.3,121.9c-7.3,14.5-12.2,14.5-24.4,24.4-4.9,4.8-12.2,7.2-2.4,12.2-9.8,4.8-14.7,7.2-19.6,17l2.4,2.4s9.4-4.5,9.7-2.4c1.7,2-12.2,9.4-14,10.6l-10.3,6.6c-12.3,9.7-19.7,7.2-26.9,21.8l24.4-2.4c4.9,17.1-12.2,19.5-24.4,26.8l-19.6,12.2c5,17.1,19.6,7.3,31.8,2.4l2.4,2.4v4.9l-24.4,12.2s-28.9,16.5-29.3,17.1c-.2.9,0,4.9,0,4.9,9.7,2.4,24.4,4.9,34.2,0,12.2-4.9,14.6-9.7,29.2-9.7-14.1,11-31,17.7-48.8,19.5v9.7c14.6,0,24.4,0,36.6-2.4l31.7-9.7c7.3,0,14.7,7.3,12.2,14.6-7.2,26.8-36.6,21.9-46.3,43.9l39-14.7c9.7-4.9,19.5-9.7,31.7-7.2,14.6,4.9,14.6,14.6,34.1,19.5l-4.9-12.2c4.9,2.4,9.7,2.4,14.7,4.9,12.2,4.9,14.6,9.7,29.3,7.3-12.2-14.6-14.6-12.2-24.4-21.9-9.7-14.6-14.7-36.6,0-39l17.1,4.9c17.1,2.4,17.1-2.4,41.4,7.3,14.7,4.9,19.6,12.2,36.6,7.3-7.2-17.1-34-29.3-51.2-34.1,19.6-12.2,14.6,4.9,41.5-2.4v-4.9c-19.4-14.7-26.8-26.9-53.6-26.9l41.5-4.9v-4.9s-41-10.7-41.9-11.2c.3-1.2,1.3-3.1,4-4.2,7.8,5.1,31.2,4.5,32.6,4.4-.7-6-11.9-11-21.6-15.8,0,0-41.9-25.8-42.1-28,.8-6.6,17.2,1,34.7,6.1-4.9-9.7-14.6-14.6-24.4-17.1l14.6-2.4c-9.7-21.9-34.1-19.5-48.8-29.2-9.8-7.3-9.8-12.2-24.5-19.4h0Z"/>
      <path class="cls-6" d="M290,284.1c1.8-5.7,4.1-10.9-6.7-15.8-10.9-5,5.4,19.8,6.7,15.9h0ZM302.8,272.5c-2.2.3-3.4,8.2,1,10.5,4.9.7.9-10.4-1-10.5M315.5,271.6c-2.2.7-2.3,12,5.6,9.9,8.1-2,0-10.8-5.6-9.8h0ZM330.3,242.8c1.7-2.8,0-14.1-6.9-9.4-6.9,4.8,4.7,10.1,6.9,9.4M315.3,233.4c2.2-.8,2.3-7.8-3.8-5.9-5.9,1.8,2.2,7.3,3.8,5.9M301.8,236.2s-4.2-5.8-7.5-4.6c-4,3.9,7.8,4.7,7.5,4.6M255.3,254.7c1.8.2,15-2.2,19.6-7.3s-23.5,2.2-23.5,2.2,2.6,4.6,3.9,5.1M387.6,221.9c.7-1.2-7-6.7-11.6-4.5-1.2,4,11.6,5.3,11.6,4.5M361.5,208.8c1.5-2.1-3.3-10.6-12.8-5.8-9.6,4.7,10,9.2,12.8,5.9h0ZM331.4,203.8s2.3-7.7,8.1-6.2c6.6,5-7.8,6.5-8.1,6.2M325.8,198c-.9-2.2-6.8-.9-13.7,3.7-6.9,4.4,15.7,1.3,13.7-3.8h0ZM343.3,177.3s6.1-2.8,8,0c2.5,4-8.1,0-8,0M338.2,174.6c-1.2-2.4-8-2.7-7.8.9-1.1,2.8,8.8,2.2,7.8-.9M322.1,174.6c-.7-1.4-10.3,0-13.1,5.8,4.7,2.2,15.3-2.2,13.1-5.8M301.4,180.5s-12.6,7.8-13.4,13.4c.4,4.9,15.8-8.8,15.8-8.8,0,0,1.3-5.4-2.2-4.6h0ZM287.5,173.4c.4-1.6,6.3-5.3,6.7-5,.5,1.6-4.8,5.9-6.7,5M291.5,203.1c.3-2.3-15-2.2-9.3,4.9,4.9,5.9,10.3-3.8,9.3-4.9M277.4,213.1c-.8-1.5-1.9-5.6-3.9-6-1.8,0-11,1.9-11.7,3.4-.4,1.2,3.8,8.8,5.3,9,1.7.7,10.2-5.6,10.5-6.4h0ZM360.3,264.8c.5-1.7,16.2-7,21.6-1.9,6.4,8.7-21.9,4.7-21.6,1.9M403.4,275.1c3.5-5.8-10.6-12.8-16.5-6.1,2.1,8,13.7,10.9,16.5,6.1"/>
    </g>
  </g>
</svg>