<?xml version="1.0" encoding="UTF-8"?>
<svg id="flag-icons-zm" xmlns="http://www.w3.org/2000/svg" xmlns:xlink="http://www.w3.org/1999/xlink" version="1.1" viewBox="0 0 640 480">
  <defs>
    <style>
      .cls-1 {
        fill: #198a00;
      }

      .cls-1, .cls-2, .cls-3, .cls-4, .cls-5, .cls-6, .cls-7, .cls-8, .cls-9, .cls-10 {
        fill-rule: evenodd;
      }

      .cls-1, .cls-11, .cls-6, .cls-8, .cls-9 {
        stroke-width: 0px;
      }

      .cls-2, .cls-3, .cls-4, .cls-5, .cls-7, .cls-8, .cls-10 {
        fill: #ef7d00;
      }

      .cls-2, .cls-3, .cls-4, .cls-5, .cls-7, .cls-10 {
        stroke: #000;
      }

      .cls-2, .cls-4, .cls-7 {
        stroke-linecap: round;
      }

      .cls-2, .cls-5 {
        stroke-miterlimit: 3.8;
      }

      .cls-2, .cls-5, .cls-7, .cls-10 {
        stroke-width: 1px;
      }

      .cls-12 {
        clip-path: url(#clippath);
      }

      .cls-11 {
        fill: none;
      }

      .cls-3, .cls-4 {
        stroke-width: .9px;
      }

      .cls-3, .cls-4, .cls-7, .cls-10 {
        stroke-linejoin: round;
      }

      .cls-6 {
        fill: #000001;
      }

      .cls-9 {
        fill: #de2010;
      }
    </style>
    <clipPath id="clippath">
      <rect class="cls-11" x="0" y="0" width="640" height="480"/>
    </clipPath>
  </defs>
  <g class="cls-12">
    <g>
      <path class="cls-1" d="M0,0h640v480H0V0Z"/>
      <path class="cls-8" d="M555.5,172.5h84.5v307.5h-84.5V172.5Z"/>
      <path class="cls-6" d="M471.2,172.3h84.4v307.5h-84.4V172.3Z"/>
      <path class="cls-9" d="M385,172.5h86.2v307.5h-86.2V172.5Z"/>
      <g>
        <path class="cls-3" d="M583.4,61.5s31.9-13.6,34.9-16.4c1.4,1.7-12.8,18.8-40.2,25,24.9-5.8,46.2-24.4,50.6-23.8,1.2.3.9,18.1-56.2,33.6,39.6-10.3,62.5-29.4,62.2-27.4.3.5-3.9,15-38.5,26.3,9.7-2.3,35.9-18.2,35.6-15.1.8,1.2-25.3,34.9-72.8,23.9,37.9,9.8,62.3-13.9,65.8-13.4.7,0-6.9,20.6-54.6,21.9,22.8-2.3,16.2,0,16.2,0,0,0-13.4,10.5-29.7,3.4,12.8,3.5,14.2,3.7,14.4,4.7-.8,1.5-11.2,3.6-21.5-1.9,8.2,3.4,15.5,3.9,15.6,5.2,0,.4-5.3,3.4-9.9,1.2-4.6-2.1-47.2-28.2-47.2-28.2l72.6-20,2.6.9h0ZM498.1,132.4c-6.4,0-6.6,5.6-6.6,5.6,0,0-.5.5-.2,3.2l1.6-2.4c.7,0,3.7.9,8.2-2.6-4.2,4.4-1.7,6-1.7,6,0,0-.9,3.5,2.2,4.1-.9-1.4-.4-2.6-.4-2.6,0,0,4.5-.5,4.2-5.9,0,5,2.8,6.2,2.8,6.2,0,0,0,2.7,2.9,3-1.5-1.4-1.2-3.6-1.2-3.6,0,0,3.8-2.8.7-7.5,1.9-1.1,3.5-4.2,3.5-4.2,0,0-2.6-1.1-3.8-2.1-.6-1.2,0-8,0-8l-1.7-8.7-4.5,13.6c.2-1.9.3,5.9-6.1,5.9h0Z"/>
        <path class="cls-3" d="M529.6,112.8c.2,0,4.8,5.2,9.3,5,1.7-1.4-3.5-4.4-3.5-5.2,1.9,1.7,9.5,8.3,14.4,5.9,1.9-2.8-3.6-2.3-9.6-9.9,4.2,2.8,14.7,8.9,19.7,6.6,2-2.3-11-9.3-15.4-14.7l-11.2-5.7-15.2,12.5,11.5,5.6h0Z"/>
        <path class="cls-4" d="M512.4,70.1s5.2-3,25.9-1.5c2.2.3,14.1-4,17.9-5.3,6-1.1,25.3-5.2,30.4-9.2,3.8-.5-.9,6.7-5.6,8.4-4.9,2.2-22.6,8.3-29,7.5,7.6,0,3.4,6.3-9.2,3.4,6,3.4,3.8,3.9,3.8,3.9,0,0-10.6.6-13.4-1.9,7.1,2.7,4.1,3.8,4.1,3.8,0,0-7.2.7-10.6-.9,5.2,1.6,2.5,2.5,2.5,2.5,0,0-4.2.8-7.7-.6-3.6-1.2-8.8-10-9.1-10h0Z"/>
        <path class="cls-3" d="M520.7,115.7l.7,13.7-.7,1.1c-.3.4-9.7-1.5-8.4,5.6,0,3,0,3.8,2.1,5.3-.5-1.9-.4-3.3-.4-3.3,0,0,2.7,1.6,5.3-2.8-1.8,4.3-.6,5.9,0,6,.4.8-.7,4.2,2.8,4.1-1.4-1.3-.7-3.2-.7-3.2,0,0,3.8-.6,2.4-7.2,1.3-1.3,1.9,0,1.9,0,0,0,.4,3.9,3.7,3.1,1.4.8-.3,3-.3,3,0,0,2.3,0,3.1-1.9.7-2.1,1.5-5.6-2.3-7.1-.5-1.4,1.5-1.5,1.5-1.5,0,0,2.4.8,3.2,2.1s.5-3.2-2.6-3.8c-3.8,0-3.9-.8-3.9-.9l-.9-12.8-6.1.5Z"/>
        <path class="cls-7" d="M533.7,127.3c0-.7-6.4-9.3-4.7-10.3,1.6.3,4.2,4.2,6.5,2.9-.7-1.5-2.6-.7-4.8-4.6-2.2-4.5-2.5-11.2-10.3-18.4,5.1,7.7,16.3,12.2,16.9,9.9s-10-10.7-9.5-12.7c2.1,4.1,12.6,13.5,20.3,12.7.6-1.9-6.3-5.4-8.1-8.8-5-3.4-18.2-14.7-18.4-17.3-2.3-4-5.5-7.3-9.3-9.9-.3-.5-.6-1-.7-1.6-3-7,.9-9.4,3.3-9.7,1.9-.3,2.4,0,3.8-.7l-4.8-1.9c2.2,1.6,7.5.2,6.4,4.7,2.3-.9,7.4-6.9-5.7-8.2-4.3-4.9-21.8-7.7-26.2,13.7.4.3.6.6,1.7,1.3-5.6-2.6-20.5-4.7-25.9-5.6-14.6-4.1-29.7-14.3-31.1-13-1.9.9,8.8,10.9,8.2,11.1-8.3-4.7-16.9-9-25.8-12.7-5.6-2.1-11.2-6.9-11.7-6-2.1,4.2,8.9,14.9,11,16.1s18.1,8.7,17.8,8.8c-24.2-11-28.1-13-29.4-14.3-2.2-.5-7.3-7.5-8.7-7-.8.7.8,11.8,12.3,16.9,1.9,1.3,24.7,9.5,24.6,10.1,0,.2-26.2-10.8-27.2-11.2-5.1-1.9-11.2-8.8-12.4-8.1-1.1.7,2.8,8.3,7.9,10.6,2.7,1.1,12.9,6.2,22.1,9.4.6.3-16.6-6.5-24.8-9.8-3.8-2.1-5.4-4.7-6-4.1-.9.6,1.3,11.6,27.8,17.8.7.4,9.4-2,8.9-1.7-4.9,1.2-9.8,2.1-14.8,2.6-.3.8,1.7,4.7,15.4,3.9,1.7,0,11.2-3.5,10.4-2.8-4.6,1.7-9.2,3.3-13.9,4.6-.8,0-5.3.6-5.4.9-.2.8,3.3,3.6,10.6,3.9,6.6.4,18.9-3.9,18.8-3.7-.4.3-12,4.3-12.3,4.5-.5.3-4.7.5-4.9.8-.4.8,6.2,6.9,25.4.4-1.9,2.6-11.2,4.4-11.2,4.9s2.1,2.3,5.3,3.1c1.6.4,3.8.3,5.9,0,3.8-.8,7.5-2.2,12.5-6.7.6,1.4-12.3,8-11.7,8.5,2.8,2.6,12.1-.3,12.7-.7.7-.3,17.8-10,17.8-11.2.3,1.5-22.2,13.8-21.9,14.2,1.4,2.3,9.1,0,9.4-.4l10.1-5.4c.3,0-11.1,6.6-10.1,7.7-.5,4.4,17.8-3,19.2-3.9.7-.5-8.8,4.1-8.8,6.3,3.1,5.2,12.8,3.6,14.3,2.4.7-.6-.9,3.8-.4,3.4,1.2-1.2,2.1-2.5,2.8-4-.2,1.5-1.3,3.8-1.9,6.4-.7,2.5-.8,5.5-1.7,8.6-.2,1.3,6-2.7,5.1-12.4.6,5.1-1.9,14.4-1.2,15,1.2.9,4.9-4.7,5.3-8.5,1,1.9,3.3,5.9,5.3,6.8-.2-2.9,0-2.8-.9-5.6.6-3.8.7-9.1.7-15.1,5.3,10,7.4,14.3,5.9,22,1.6.7,4-5.4,3.8-8.4,1.2,5.2,5.5,9,10.8,9.6"/>
        <path class="cls-7" d="M446.3,63.5s-3.7,2.7-8.1,2.5c1.1,4.5,10.3,1,10.3,1,0,0-4.4,5-7.6,5.7,1.9,1.6,9.9,1,11.2.3,1.3-.8,3.8-3.9,3.8-3.9,0,0-8.2,9.6-9.4,9.5-.3,1.1,8.5.8,10.3-.9,1.9-1.7,6.6-4.1,6.6-4.1,0,0-12.2,8.4-12.7,8.4,4.5,1.1,13.6-1.5,19.4-5.1-8.6,5.7-9.4,6.7-13.8,8.7,3.9.8,5.9,3.5,19-2.3,7.5-3.6,11.8-10.1,11.8-10.1-5.7,6.8-12.6,12.5-20.3,16.9-.5.9,8.8,4.9,20.5-7.4"/>
        <path class="cls-2" d="M510.1,90s.8,3.8,4,6.6,3.4,5.6,3.4,5.6M508.6,65.6s1,3.5,4.3,5.6c3.4,2.1,8.4,8.8,8.7,10,.4,1.4,2.3,11.8,2.2,12.9M488.3,70.8c.2,1.4-4.7,7.8,2.1,15.4-6.2,7.5-6.2,8.4-6.2,8.4,0,0,3.5,1.9,9.6-3.4,10.1,12.4,6.8,18,6.8,18"/>
        <path class="cls-7" d="M499.7,100.5s-.9-1.3.7-6.3c1.5,1.9,3.2,2.2,3.8,2.8.7.8,8.4,1.9,8.8,7"/>
        <path class="cls-5" d="M508.7,53.9c0-.4-1.6-3.8-7.3.4,3.1.2,6.1,2,7.3-.4Z"/>
        <path class="cls-10" d="M563.2,68.9c.3.2,17.1,3.8,22.7,2-7.1,9.6-21.5,3.1-21.5,3.1,7,2.1,7.3,1.9,9.6,3.9.7,1.9-12.9.9-17.3-1.6,12.5,3.9,12.8,3.8,13.1,5.2.6,2.2-20.4-.6-22.2-3.3,5.6,4.3,8.6,5.2,11.7,7.1-3.8,1.7-10.8,3.4-23.6-5.7,16.9,15.4,32.2,14.4,34.6,17.2-5.9,8.7-28.8-5.2-39.3-12.2s23,17,26.1,16.6c-1.5,2.3-12.6.3-13.3-.9"/>
        <path class="cls-2" d="M567.5,85c-1.9.3-7.8.3-8.6,0"/>
        <path class="cls-7" d="M441.3,60.9s12.8,6.7,18.2,6.3c-1,.9-2.3,1.5-3.6,1.9,1.3.6,5.1,2.5,10.7,1.3l-3.1,2.8s4.9,1.9,10.3-.9c-.9,1.1-1.8,2.3-2.6,3.5l3.8.3"/>
      </g>
    </g>
  </g>
</svg>