<?xml version="1.0" encoding="UTF-8"?>
<svg id="flag-icons-il" xmlns="http://www.w3.org/2000/svg" xmlns:xlink="http://www.w3.org/1999/xlink" version="1.1" viewBox="0 0 640 480">
  <defs>
    <style>
      .cls-1 {
        fill: #0038b8;
      }

      .cls-1, .cls-2, .cls-3 {
        stroke-width: 0px;
      }

      .cls-1, .cls-3 {
        fill-rule: evenodd;
      }

      .cls-4 {
        clip-path: url(#clippath);
      }

      .cls-2 {
        fill: none;
      }

      .cls-3 {
        fill: #fff;
      }
    </style>
    <clipPath id="clippath">
      <rect class="cls-2" x="-.2" width="641.6" height="481.3"/>
    </clipPath>
  </defs>
  <g class="cls-4">
    <g>
      <path class="cls-3" d="M641.4,481.3H0V0h641.4v481.3Z"/>
      <path class="cls-1" d="M641.4,108.3H0v-63.2h641.4v63.2ZM641.4,437.8H0v-63.2h641.4v63.2ZM210.3,179.3l103.5,180.1,105.7-179.3-209.2-.8Z"/>
      <path class="cls-3" d="M294.4,298.7l19.6,33.4,20.1-33.2-39.8-.2Z"/>
      <path class="cls-1" d="M209.9,301.4l103.6-180.1,105.7,179.4-209.2.8Z"/>
      <path class="cls-3" d="M294.4,180.1l19.6-33.4,20.1,33.3h-39.8ZM253.2,254.8l-20.4,33.8h38.5c0,0-18.1-33.9-18.1-33.9h0ZM233.2,192.3l38.7.3-18.6,34.1-20.1-34.4ZM375.3,255.3l19.6,33.4-39.2-.5,19.6-32.9ZM394.6,192.3l-38.7.3,18.6,34.1,20.1-34.4ZM287.1,192.3l-26.7,48.3,27.1,47.3,49.6,1.1,30.1-48.4-27.8-48.9-52.3.6Z"/>
    </g>
  </g>
</svg>