<?xml version="1.0" encoding="UTF-8"?>
<svg id="flag-icons-kr" xmlns="http://www.w3.org/2000/svg" xmlns:xlink="http://www.w3.org/1999/xlink" version="1.1" viewBox="0 0 640 480">
  <defs>
    <style>
      .cls-1 {
        clip-path: url(#clippath);
      }

      .cls-2 {
        fill: none;
      }

      .cls-2, .cls-3, .cls-4, .cls-5, .cls-6, .cls-7 {
        stroke-width: 0px;
      }

      .cls-3, .cls-5 {
        fill: #cd2e3a;
      }

      .cls-4 {
        fill: #0047a0;
      }

      .cls-4, .cls-5, .cls-6, .cls-7, .cls-8, .cls-9 {
        fill-rule: evenodd;
      }

      .cls-6 {
        fill: #000001;
      }

      .cls-7 {
        fill: #fff;
      }

      .cls-8 {
        stroke-miterlimit: 40;
        stroke-width: 10px;
      }

      .cls-8, .cls-9 {
        fill: #000;
        stroke: #fff;
      }

      .cls-9 {
        stroke-miterlimit: 40;
        stroke-width: 10px;
      }
    </style>
    <clipPath id="clippath">
      <rect class="cls-2" x="0" y="0" width="640" height="480"/>
    </clipPath>
  </defs>
  <g class="cls-1">
    <g>
      <path class="cls-7" d="M0,0h640.1v480H0V0Z"/>
      <g>
        <g id="kr-c">
          <path id="kr-b" class="cls-6" d="M70.1,145.8l66.6-99.8,16.6,11.1-66.6,99.8-16.6-11.1ZM95.1,162.5l66.6-99.8,16.6,11.1-66.6,99.8-16.6-11.1ZM120,179.1l66.6-99.8,16.6,11.1-66.6,99.8-16.6-11.1Z"/>
          <path id="kr-b-2" data-name="kr-b" class="cls-6" d="M436.2,389.9l66.6-99.8,16.6,11.1-66.6,99.8-16.6-11.1ZM461.1,406.6l66.6-99.8,16.6,11.1-66.6,99.8-16.6-11.1ZM486.1,423.2l66.6-99.8,16.6,11.1-66.6,99.8-16.6-11.1Z"/>
        </g>
        <path class="cls-8" d="M461.1,334.5l83.2,55.5"/>
        <path class="cls-5" d="M219.9,173.6c36.8-55.1,111.3-70,166.4-33.3s70,111.3,33.3,166.4l-199.7-133.2Z"/>
        <path class="cls-4" d="M219.9,173.6c-36.8,55.1-21.9,129.6,33.3,166.4s129.6,21.9,166.4-33.3,10.9-64.8-16.6-83.2c-27.6-18.4-64.8-10.9-83.2,16.6l-99.8-66.6Z"/>
        <circle class="cls-3" cx="269.8" cy="206.9" r="60"/>
      </g>
      <g>
        <g id="kr-c-2" data-name="kr-c">
          <path id="kr-b-3" data-name="kr-b" class="cls-6" d="M137,434.4l-66.6-99.8,16.6-11.1,66.6,99.8-16.6,11.1ZM161.9,417.7l-66.6-99.8,16.6-11.1,66.6,99.8-16.6,11.1ZM186.9,401.1l-66.6-99.8,16.6-11.1,66.6,99.8-16.6,11.1Z"/>
          <path id="kr-b-4" data-name="kr-b" class="cls-6" d="M503,190.2l-66.6-99.8,16.6-11.1,66.6,99.8-16.6,11.1ZM528,173.6l-66.6-99.8,16.6-11.1,66.6,99.8-16.6,11.1ZM553,156.9l-66.6-99.8,16.6-11.1,66.6,99.8-16.6,11.1Z"/>
        </g>
        <path class="cls-9" d="M124.5,370.6l25-16.6M461.4,145.9l29.1-19.4M515.5,109.8l25-16.6"/>
      </g>
    </g>
  </g>
</svg>